<mxfile host="app.diagrams.net" modified="2023-06-12T08:56:10.791Z" agent="Mozilla/5.0 (Macintosh; Intel Mac OS X 10.15; rv:109.0) Gecko/20100101 Firefox/113.0" version="21.3.8" etag="p5dWpq7PqDot1LID5_qH" type="github">
  <diagram name="Page-1" id="KpB4XegE83nNKhYvIekd">
    <mxGraphModel>
      <root>
        <mxCell id="0" />
        <mxCell id="1" parent="0" />
      </root>
    </mxGraphModel>
  </diagram>
</mxfile>
